PathFileType	4	(X/Y/Z)	38_2_67_p1_0-437.trc
DataRate	CameraRate	NumFrames	NumMarkers	Units	OrigDataRate	OrigDataStartFrame	OrigNumFrames
60.0	60.0	5	27	m	60.0	164	438
Frame#	Time	RHip			RKnee			RAnkle			RBigToe			RSmallToe			RHeel			LHip			LKnee			LAnkle			LBigToe			LSmallToe			LHeel			Neck			Head			Nose			RShoulder			RElbow			RWrist			RThumb			RIndex			RPinky			LShoulder			LElbow			LWrist			LThumb			LIndex			LPinky			
		X1	Y1	Z1	X2	Y2	Z2	X3	Y3	Z3	X4	Y4	Z4	X5	Y5	Z5	X6	Y6	Z6	X7	Y7	Z7	X8	Y8	Z8	X9	Y9	Z9	X10	Y10	Z10	X11	Y11	Z11	X12	Y12	Z12	X13	Y13	Z13	X14	Y14	Z14	X15	Y15	Z15	X16	Y16	Z16	X17	Y17	Z17	X18	Y18	Z18	X19	Y19	Z19	X20	Y20	Z20	X21	Y21	Z21	X22	Y22	Z22	X23	Y23	Z23	X24	Y24	Z24	X25	Y25	Z25	X26	Y26	Z26	X27	Y27	Z27	
164	2.7333333333333334	0.39922700915831244	0.7203223879888099	0.5495561011913803	0.3521441866014935	0.7842796813837946	0.9927949965260398	0.37379068790702796	1.025007211985469	1.3653954665595347	0.31691844075221903	0.8483301745305724	1.4283047997479104	0.3925949509949333	0.8530145884989612	1.4186138686422536	0.36483589969941793	1.1510121555454254	1.4225433221567652	0.20100427391452672	0.7397803151887526	0.5448369236658437	0.20173302193154613	0.8287034228125117	0.9763561287348022	0.1739820045849176	1.0532046568417277	1.353877844521945	0.16028143283192045	0.8561803604755774	1.4046973814878776	0.11267406791839767	0.9185667669528557	1.404040233766852	0.21375591430426444	1.1879941694553708	1.4357969079295967	0.2865841467924237	0.6032597616440413	0.07835621804095222	0.2438664229442507	0.43605949495069385	-0.1149563905449502	0.26692227122055284	0.42555210136206395	0.04653084930990178	0.4058237999534146	0.5783352882478556	0.07697204985149726	0.4324096059228291	0.4463269025444311	0.20525209250464654	0.3419208511416236	0.45751329746199915	0.04695754425171473	0.3091881202592294	0.5452786030849197	-0.05014164948582412	0.303019652836165	0.5199357072574781	-0.05660108043959765	0.32945477977067084	0.24086653677370715	0.04721293084838988	0.15743989741735284	0.6693260534058159	0.07104071965889712	0.12324556603316106	0.5142750422593207	0.2428105835045404	0.1823138410681799	0.5417971248909513	0.02216617773633692	0.23640596355287768	0.621548842407561	-0.08646891260089548	0.23543884900678366	0.6164420446710951	-0.102238231398712	0.2055090080592709	0.526555342579943	-0.04121912518056336
165	2.75	0.3992394983302094	0.7203146212464606	0.5495201246036036	0.3481496355707496	0.7842827940551506	0.9926451635635576	0.3738693805842935	1.024230288308209	1.3695016118981609	0.3170560975476589	0.8483057753161397	1.428170232418674	0.3927034733413358	0.8529850543531917	1.418491345933363	0.359792060548527	1.1486271051470067	1.421732801807918	0.20101947376152698	0.7397317129596787	0.5448340582357324	0.20074260153149023	0.8257087533296512	0.9717694003886267	0.17392242161959307	1.053145049025963	1.3537297975569063	0.1602486263347745	0.856012102969765	1.404623036237789	0.11267807158872893	0.9185859451645251	1.4040326570903376	0.21379457973623725	1.1881551459844364	1.4357439142928672	0.28257063046493025	0.5938711813521536	0.08650923489022443	0.2437710320449813	0.436207434704622	-0.11494529116347223	0.268586894873123	0.4132152844627133	0.04827483165784955	0.4098001813118057	0.5793130731445194	0.07991595554595794	0.4323498782783599	0.4463320001510958	0.20522891708176538	0.3422806205140917	0.4573910739339946	0.04730105806284189	0.31890374021814927	0.5407207496142719	-0.04309586052533822	0.3113699804410904	0.5161990580295136	-0.045460267302933635	0.34608485170214504	0.22547486328356683	0.051664485513245824	0.15752678925668703	0.6686852418828102	0.06781321638989059	0.12331347333175405	0.5143213105295122	0.24284283967899095	0.18221553494016715	0.5418776511906528	0.02227714363178899	0.22848615701062336	0.6114503570926069	-0.07364354669115168	0.22763264990235646	0.607051116621686	-0.08499226818673605	0.20994392992067445	0.5160707986269845	-0.03493006888622524
166	2.7666666666666666	0.39919811933743915	0.720235509888155	0.5495074807220134	0.3480431409145614	0.7843037729539758	0.9927061061586686	0.37378779014856356	1.0242191404417715	1.3694543816206508	0.31663419916028673	0.8473511092617538	1.4279845293387476	0.392411665575363	0.8523021154593403	1.4183125314215481	0.36336965338833105	1.1471966826419067	1.4172350754305187	0.2009654716028144	0.7395499015866001	0.544811751226858	0.20074841448912023	0.8255659424019214	0.9717489141787685	0.1738054021666936	1.0528259981028902	1.3534105670810759	0.16015027748716423	0.8556416135716889	1.4044900648967351	0.11257282317798196	0.917812951700029	1.4035976519648308	0.21263001173139467	1.1901123293413618	1.4414419266604757	0.28237291011654087	0.5942953337573499	0.08677445035110853	0.23955528896607337	0.42514619516749713	-0.1097889129513693	0.26204290439252714	0.42520738036707895	0.0466990853646856	0.4096606602266644	0.5789804448878041	0.07978241948962403	0.4324918089701143	0.44862670555343914	0.21525083051139005	0.340857770993835	0.47401311330114915	0.052715550624046696	0.31507768882744075	0.5570138755259754	-0.04548913314518696	0.30676285876010884	0.5312309701360016	-0.05473454671014581	0.3436698683595167	0.2057764090968405	0.06033357121409507	0.15721307999442422	0.6692734685869954	0.07121555781099292	0.12329975869130393	0.5141462779387367	0.24277847197720093	0.18154555108338047	0.5421654226027438	0.017177955305879226	0.2363688787047755	0.6211956593058322	-0.08699178434222186	0.23412481967060117	0.6192038825118947	-0.08660187770004403	0.20288354807898198	0.5436093015858814	-0.04476504570464523
167	2.783333333333333	0.39838684126736573	0.71786835624587	0.5456521374762392	0.34813118122578324	0.7844717306616148	0.9926720716244325	0.37375207050558196	1.024285739124014	1.3694671019073617	0.318207836535394	0.8475112258471175	1.4234572049912262	0.39316979499512567	0.8538303829542508	1.4185309979420708	0.35974154133436875	1.1487325907783295	1.4216862784601254	0.2009498279208081	0.7395211537697269	0.5447401870887764	0.2007202397888476	0.825593546722035	0.971768238844142	0.1738420350841091	1.0531838045844621	1.3536062894585206	0.16019000928697288	0.8557586079431125	1.4045029194659095	0.11255933630618625	0.9181356266380001	1.4037385845496764	0.21383032223232962	1.1887384608107698	1.4360422847229637	0.2824488181780053	0.5942408840753339	0.08687135342865257	0.23917144165745965	0.4246167842907776	-0.10985965360897008	0.26187000332925753	0.4251832846546637	0.049437067687965255	0.4003144007463587	0.5671393839980529	0.0812892050942088	0.42676871657086174	0.4613491057319815	0.21462422115688654	0.3462460776666033	0.4773004127389602	0.06325690320880817	0.37493058861871753	0.3361100601026483	0.03731993463970695	0.277927312603331	0.5403549980457504	-0.07585729223443353	0.35548344093177553	0.23704196263956348	0.06790399006357754	0.1573040465455654	0.6695023323773326	0.07079871008142288	0.12349382703970256	0.5143501037162349	0.24631095014840837	0.18107713619108065	0.541679015806095	0.01895838287933553	0.23589903726397116	0.6199421025006567	-0.09065961097742155	0.23606190391115253	0.6188593719262626	-0.0983455247272838	0.20143391344498274	0.5252652874443994	-0.05853795184125181
168	2.8	0.4009480477135445	0.7048075490743069	0.5491480638411982	0.35207079152232196	0.7853604164484504	0.9893892310021669	0.3739396336558928	1.0241556559435607	1.3694866561992878	0.32191558239319423	0.8609930908095484	1.4323107683664726	0.3975812590487766	0.8662555868810015	1.4227219159779636	0.3633855890127318	1.1473480256256976	1.417247426128633	0.2010016498992848	0.7396611099767828	0.5447839072338007	0.20070533278984032	0.8256585412836723	0.9718154507473137	0.1787405682952194	1.068634617054214	1.3578966977448759	0.15921632087052526	0.8578389626722287	1.408873799827514	0.11244102885602254	0.9233949557302821	1.4131544926556758	0.2139062936685868	1.1886371097044195	1.435725152424191	0.282557165126973	0.5941229528457528	0.0866104943064442	0.238960019073525	0.424512294747984	-0.11261701311451339	0.2619201063842211	0.42462658566520817	0.04669894631257893	0.3997130803122323	0.5649639175359976	0.07454840100066414	0.4265684977293517	0.4615026170168469	0.21452484527145935	0.33976189209649565	0.45537781504859415	0.0744403384735964	0.3295177993164283	0.5671388899851849	-0.024893452175443805	0.31654494158643387	0.5326238210096109	-0.03365427782249702	0.33602838550391523	0.2313633930349077	0.0642254664897863	0.15368347115690517	0.668231970441531	0.06750699823794057	0.12370222870015081	0.5141227244202835	0.24650577607886456	0.17754506513657445	0.5309492995299536	0.023757551893145875	0.23906440328928744	0.6456511263675025	-0.09559745124454253	0.23118823311925182	0.6297247949780506	-0.1046141828394938	0.20533652273217723	0.5103178676746402	-0.05845727316176695
